# xmcd
# Copyright (C) 1995-1998 Ti Kan
#
# Track frame offsets:
#       183
#       13383
#       22545
#       33225
#       46713
#       55335
#       66893
#       78908
#       89180
#       99195
#       111735
#       120940
#       131415
#       142130
#       152593
#       162918
#       174055
#       185938
#       198365
#       210733
#
# Disc length: 2952 seconds
#
# Revision: 0
# Processed by: cddbd v1.5.2PL0 Copyright (c) Steve Scherf et al.
# Submitted via: CD-Import v1.0
#
DISCID=0c0b8614
DTITLE=Shadows - 20 Golden Greats
DYEAR=1900
DGENRE=
TTITLE0=Apache
TTITLE1=Man Of Mystery
TTITLE2=The Frightened City
TTITLE3=Guitar Tango
TTITLE4=Kon-Tiki
TTITLE5=Foot Tapper
TTITLE6=Genie With The Light Brown Lamp
TTITLE7=The Warlord
TTITLE8=A Place In The Sun
TTITLE9=Atlantis
TTITLE10=Wonderful Land
TTITLE11=Fbi
TTITLE12=The Savage
TTITLE13=Geronimo
TTITLE14=Shindig
TTITLE15=Stingray
TTITLE16=Theme For Young Lovers
TTITLE17=The Rise And Fall Of Flingel Bunt
TTITLE18=Maroc 7
TTITLE19=Dance On
EXTD=
EXTT0=
EXTT1=
EXTT2=
EXTT3=
EXTT4=
EXTT5=
EXTT6=
EXTT7=
EXTT8=
EXTT9=
EXTT10=
EXTT11=
EXTT12=
EXTT13=
EXTT14=
EXTT15=
EXTT16=
EXTT17=
EXTT18=
EXTT19=
PLAYORDER=
